<?xml version="1.0" encoding="UTF-8" standalone="yes"?><svg xmlns="http://www.w3.org/2000/svg" xmlns:xlink="http://www.w3.org/1999/xlink" cursor="crosshair" height="1024" width="1024" version="1.1" viewBox="300 -40 930 860"><defs><linearGradient id="beard-stripes" x1="0" y1="0" x2="20" y2="0" gradientUnits="userSpaceOnUse" gradientTransform="rotate(-28)" spreadMethod="repeat"><stop offset="0" stop-color="#483f79" stop-opacity="1"></stop><stop offset="0.27" stop-color="#483f79" stop-opacity="1"></stop><stop offset="0.27" stop-color="#483f79" stop-opacity="0"></stop><stop offset="1" stop-color="#483f79" stop-opacity="0"></stop></linearGradient></defs><g fill="none" fill-rule="nonzero" stroke="none" stroke-width="1" stroke-linecap="butt" stroke-linejoin="miter" stroke-miterlimit="10" font-family="none" font-weight="none" font-size="none"><g id="stage"><g id="layer1-1"><path d="M1033.0143,-21.78036 c11.09,7.658 69.4349,42.01957 85.50964,75.1194 c26.46408,81.89286 53.63247,263.80282 53.03606,320.97094 c25.665,-14.428 60.035,0.47 62.34,31.175 c1.9,25.31 -9.24,35.77 -23.865,53.44 c6.045,19.255 12.29,29.79 12.47,51.335 c0.35,41.705 -26.57,64.185 -67.305,64.245 c-5.05,39.575 -19.01,83.88 -43.04,116.14 c-9.485,12.49 -20.23,23.97 -32.065,34.265 c-49.34,43.53 -101.745,54.09 -164.57,63.185 c-5.115,0.205 -16.22,1.765 -21.87,2.34 c-14.385,1.51 -28.795,2.755 -43.225,3.745 c-30.775,2.205 -78.7,3.265 -110.4965,2.455 c-91.215,-2.325 -209.8715,-6.175 -283.353,-67.025 c-36.228,-30.005 -50.252,-75.46 -53.3865,-120.655 c-13.004,-0.07 -23.0155,-1.655 -34.8435,-7.4 c-18.2085,-8.83 -32.2205,-24.46 -39.0195,-43.525 c-7.0515,-20.38 -5.489,-43.185 4.1295,-62.525 c2.6205,-6.635 10.9425,-16.46 10.8265,-23.49 c-0.0405,-2.455 -11.6365,-13.675 -13.7645,-16.41 c-2.8835,-3.63 -5.1315,-7.72 -6.65,-12.1 c-9.7205,-28.72 34.34581,-57.05313 58.56831,-65.39313 c-5.52949,-75.34492 36.69257,-206.13514 40.02407,-228.44364 c-27.37054,-26.17278 -37.55742,-89.8899 -3.77199,-122.46872 c45.85166,-44.64503 56.5108,-53.10093 94.4458,-53.48493 c38.35,-0.594 186.92119,33.70311 225.12619,35.99511 c87.16375,0.12346 177.98942,-97.98953 294.74942,-31.49003 " id="Path-1-1" fill="#483f79"></path><path d="M658.58373,181.09937 c30.38883,-2.47171 207.17304,92.08049 268.06439,43.8471 c44.41377,-31.50158 -43.10309,-55.51392 -25.75973,-56.18097 c17.34336,-0.66705 195.58116,115.43531 220.94659,16.32949 c8.03,31.8885 16.465,60.468 21.355,93.509 c10.8,72.974 6.5,145.436 -1.02,218.411 c-2.445,25.52 -5.435,50.98 -8.96,76.365 c-4.9,27.78 -11.165,55.075 -24.275,80.065 c-24.9,47.56 -70.995,83.185 -122.59,97.905 c-58.805,16.775 -124.19,21.085 -185.26,22.8 c-13.595,0.385 -29.49,1.835 -42.72,1.41 c-86.71,-2.8 -179.2245,-2.235 -258.4695,-42.265 c-12.4035,-6.27 -21.276,-14.15 -31.6525,-22.45 c-34.031,-27.22 -38.3365,-66.35 -50.2205,-104.975 l2.4575,-1.065 c8.8755,-3.875 19.832,-11.405 24.032,-20.505 c0.758,-1.645 0.628,-4.085 -0.252,-5.67 c-4.0345,-7.29 -12.6585,-0.46 -17.84,1.605 c-12.9205,6.395 -25.2295,9.605 -39.3535,5.23 c-14.7175,-4.41 -27.03,-14.58 -34.1425,-28.195 c-9.504,-18.43 -6.6825,-42.035 4.4465,-59.095 c2.913,-4.465 6.6075,-11.085 8.1475,-16.095 c1.3155,-4.315 1.6445,-8.875 0.963,-13.335 c-2.2935,-14.83 -13.584,-18.445 -19.775,-29.58 c-8.7355,-15.715 14.1605,-32.525 26.7145,-38.205 c13.2625,-6.06 28.5345,-5.9 41.6685,0.435 c4.4985,2.17 11.9375,9.255 17.3035,6.505 c3.4205,-1.75 2.017,-10.215 -0.0745,-12.635 c-8.086,-9.355 -20.948,-15.71 -32.8745,-18.575 c0.1895,-12.758 1.5455,-30.6885 3.2975,-43.4005 c8.2805,-60.0805 41.22678,-154.07683 43.04028,-151.68383 c52.86827,45.91128 104.00213,55.77977 188.15399,51.52815 c42.27762,-3.54821 42.14643,-35.829 24.64848,-52.03444 " id="Path-1-2" fill="#b4b1d5"></path><path d="M400.810547,370.019531 c82.646484,60.849609 -20.261719,331.445312 81.738281,381.445312 c73,36 474.082031,16.347656 553.095703,-4.541016 c79.013672,-20.888672 158.935547,-279.726562 100.810547,-227.050781 c-58.125,52.675781 -530.390625,15.439453 -576.708984,16.347656 c-46.318359,0.908203 -33.603516,-286.083984 -24.521484,-313.330078 c9.082031,-27.246094 -37.236328,-0.908206 -105.351562,-44.501953 " id="Path-beard" fill="url(#beard-stripes)" opacity="0.72"></path><path d="M375.4605,428.975c18.5175,-0.95 35.685,25.29 42.288,39.71c5.689,12.42 12.5645,31.88 8.3055,45.49c-1.2805,4.095 -4.937,5.2 -8.408,2.91c-4.4935,-2.865 -5.7925,-9.32 -7.0175,-14.185c-4.1035,1.87 -7.291,3.12 -10.7225,6.15c-4.8585,4.295 -7.776,10.37 -8.089,16.85c-0.7425,15.36 10.417,20.715 23.7915,21.235c9.813,1.735 5.5455,9.75 -1.1915,11.07c-15.916,3.345 -34.048,-8.935 -37.15,-24.91c-4.211,-21.69 8.552,-41.165 29.704,-46.2c-4.4215,-12.395 -11.9075,-27.395 -20.6145,-37.125c-3.1855,-3.34 -6.8335,-6.31 -10.1975,-9.465c-4.8455,-4.54 -6.2305,-6.705 -0.6985,-11.53z" id="Path-1-3" fill="#483f79"></path><path d="M1108.56994,177.54041 c-19.8131,70.20018 -185.15314,-31.38895 -233.49363,-26.63841 c-2.6649,22.60774 85.91951,49.55901 32.35312,67.13753 c-98.30062,10.17392 -234.36238,-52.60742 -271.38838,-65.16042 c-12.6045,-4.311 28.94451,58.77285 -10.50655,59.37244 c-30.9841,2.68574 -87.45238,-13.43856 -97.44388,-18.45506 c-30.2125,-14.9425 -214.85862,-117.22065 -40.9339,-193.67288 c57.49474,-13.98669 225.49891,30.68043 255.65391,30.58143 c97.10424,-2.81152 115.88174,-69.21906 235.16319,-52.96961 c90.575,21.73393 166.54358,82.28496 130.59612,199.80498" id="Path-1-4" fill="#483f79"></path><path d="M1188.79,390.71c12.915,0.255 22.45,4.465 22.91,19.105c0.625,19.835 -18.22,26.79 -23.125,43.495c-3.395,11.54 4.925,24.615 7.9,35.58c5.18,19.095 6.555,41.62 -11.04,54.815c-8.465,5.485 -17.05,7.115 -26.94,8.005c2.42,-14.175 3.82,-33.695 5.21,-48.205c3.565,-35.12 6.01,-70.345 7.335,-105.62c6.13,-4.96 9.89,-6.53 17.75,-7.175z" id="Path-1-5" fill="#b4b1d5"></path></g></g></g></svg>